<svg width="442" height="172" viewBox="0 0 442 172" fill="none" xmlns="http://www.w3.org/2000/svg">
<path d="M44.8242 105.41L39.502 110.781L6.68945 83.3887L39.502 55.9961L44.8242 61.416L18.2129 83.291L44.8242 105.41ZM102.197 41.0059L68.7012 120.498H60.5957L94.0918 41.0059H102.197ZM120.166 61.416L125.439 55.9961L158.252 83.3887L125.439 110.781L120.166 105.41L146.777 83.4863L120.166 61.416Z" fill="#273329"/>
<path d="M198.859 71.8125C198.859 73.9062 198.562 75.7344 197.969 77.2969C197.391 78.8594 196.586 80.1562 195.555 81.1875C194.523 82.2188 193.305 82.9922 191.898 83.5078C190.492 84.0234 188.969 84.2812 187.328 84.2812C186.578 84.2812 185.828 84.2422 185.078 84.1641C184.344 84.0859 183.594 83.9531 182.828 83.7656V93.6094H178.75V60.4688H182.383L182.641 64.4062C183.812 62.7969 185.062 61.6719 186.391 61.0312C187.719 60.375 189.156 60.0469 190.703 60.0469C192.047 60.0469 193.227 60.3281 194.242 60.8906C195.258 61.4531 196.109 62.25 196.797 63.2812C197.484 64.2969 198 65.5312 198.344 66.9844C198.688 68.4219 198.859 70.0312 198.859 71.8125ZM194.688 72C194.688 70.7656 194.594 69.6328 194.406 68.6016C194.234 67.5703 193.953 66.6875 193.562 65.9531C193.172 65.2188 192.672 64.6484 192.062 64.2422C191.453 63.8203 190.727 63.6094 189.883 63.6094C189.367 63.6094 188.844 63.6953 188.312 63.8672C187.781 64.0234 187.227 64.2969 186.648 64.6875C186.086 65.0625 185.484 65.5703 184.844 66.2109C184.219 66.8359 183.547 67.6172 182.828 68.5547V79.9688C183.578 80.2812 184.367 80.5312 185.195 80.7188C186.023 80.8906 186.836 80.9766 187.633 80.9766C189.836 80.9766 191.562 80.2344 192.812 78.75C194.062 77.25 194.688 75 194.688 72ZM224.055 84H219.977V68.9766C219.977 67.1641 219.633 65.8125 218.945 64.9219C218.273 64.0156 217.305 63.5625 216.039 63.5625C215.492 63.5625 214.977 63.6406 214.492 63.7969C214.023 63.9375 213.531 64.1953 213.016 64.5703C212.5 64.9297 211.938 65.4219 211.328 66.0469C210.719 66.6719 210.016 67.4531 209.219 68.3906V84H205.141V50.8828H209.219V60.4688L209.078 64.1719C209.719 63.4062 210.344 62.7656 210.953 62.25C211.578 61.7188 212.195 61.2891 212.805 60.9609C213.43 60.6328 214.062 60.3984 214.703 60.2578C215.344 60.1172 216.008 60.0469 216.695 60.0469C219.039 60.0469 220.852 60.7656 222.133 62.2031C223.414 63.625 224.055 65.7734 224.055 68.6484V84ZM252.016 72.0469C252.016 73.875 251.758 75.5547 251.242 77.0859C250.727 78.6016 249.984 79.9062 249.016 81C248.047 82.0781 246.867 82.9219 245.477 83.5312C244.086 84.125 242.508 84.4219 240.742 84.4219C239.055 84.4219 237.539 84.1641 236.195 83.6484C234.867 83.1172 233.734 82.3438 232.797 81.3281C231.875 80.3125 231.164 79.0547 230.664 77.5547C230.18 76.0547 229.938 74.3281 229.938 72.375C229.938 70.5469 230.195 68.8828 230.711 67.3828C231.227 65.8672 231.969 64.5703 232.938 63.4922C233.906 62.3984 235.086 61.5547 236.477 60.9609C237.867 60.3516 239.445 60.0469 241.211 60.0469C242.898 60.0469 244.406 60.3125 245.734 60.8438C247.078 61.3594 248.211 62.125 249.133 63.1406C250.07 64.1406 250.781 65.3906 251.266 66.8906C251.766 68.3906 252.016 70.1094 252.016 72.0469ZM247.844 72.2344C247.844 70.7812 247.68 69.5156 247.352 68.4375C247.039 67.3438 246.586 66.4375 245.992 65.7188C245.398 64.9844 244.672 64.4375 243.812 64.0781C242.969 63.7031 242.023 63.5156 240.977 63.5156C239.758 63.5156 238.711 63.7578 237.836 64.2422C236.977 64.7109 236.266 65.3438 235.703 66.1406C235.156 66.9375 234.75 67.8672 234.484 68.9297C234.234 69.9766 234.109 71.0781 234.109 72.2344C234.109 73.6875 234.266 74.9609 234.578 76.0547C234.906 77.1484 235.367 78.0625 235.961 78.7969C236.555 79.5156 237.273 80.0625 238.117 80.4375C238.961 80.7969 239.914 80.9766 240.977 80.9766C242.195 80.9766 243.234 80.7422 244.094 80.2734C244.969 79.7891 245.68 79.1484 246.227 78.3516C246.789 77.5547 247.195 76.6328 247.445 75.5859C247.711 74.5234 247.844 73.4062 247.844 72.2344ZM276.883 83.6719C275.961 83.9062 275.008 84.0703 274.023 84.1641C273.039 84.2734 272.039 84.3281 271.023 84.3281C268.07 84.3281 265.867 83.6641 264.414 82.3359C262.961 80.9922 262.234 78.9375 262.234 76.1719V63.8906H255.648V60.4688H262.234V54L266.312 52.9453V60.4688H276.883V63.8906H266.312V75.8438C266.312 77.5312 266.758 78.7969 267.648 79.6406C268.555 80.4688 269.883 80.8828 271.633 80.8828C272.383 80.8828 273.203 80.8281 274.094 80.7188C274.984 80.5938 275.914 80.4062 276.883 80.1562V83.6719ZM304.797 72.0469C304.797 73.875 304.539 75.5547 304.023 77.0859C303.508 78.6016 302.766 79.9062 301.797 81C300.828 82.0781 299.648 82.9219 298.258 83.5312C296.867 84.125 295.289 84.4219 293.523 84.4219C291.836 84.4219 290.32 84.1641 288.977 83.6484C287.648 83.1172 286.516 82.3438 285.578 81.3281C284.656 80.3125 283.945 79.0547 283.445 77.5547C282.961 76.0547 282.719 74.3281 282.719 72.375C282.719 70.5469 282.977 68.8828 283.492 67.3828C284.008 65.8672 284.75 64.5703 285.719 63.4922C286.688 62.3984 287.867 61.5547 289.258 60.9609C290.648 60.3516 292.227 60.0469 293.992 60.0469C295.68 60.0469 297.188 60.3125 298.516 60.8438C299.859 61.3594 300.992 62.125 301.914 63.1406C302.852 64.1406 303.562 65.3906 304.047 66.8906C304.547 68.3906 304.797 70.1094 304.797 72.0469ZM300.625 72.2344C300.625 70.7812 300.461 69.5156 300.133 68.4375C299.82 67.3438 299.367 66.4375 298.773 65.7188C298.18 64.9844 297.453 64.4375 296.594 64.0781C295.75 63.7031 294.805 63.5156 293.758 63.5156C292.539 63.5156 291.492 63.7578 290.617 64.2422C289.758 64.7109 289.047 65.3438 288.484 66.1406C287.938 66.9375 287.531 67.8672 287.266 68.9297C287.016 69.9766 286.891 71.0781 286.891 72.2344C286.891 73.6875 287.047 74.9609 287.359 76.0547C287.688 77.1484 288.148 78.0625 288.742 78.7969C289.336 79.5156 290.055 80.0625 290.898 80.4375C291.742 80.7969 292.695 80.9766 293.758 80.9766C294.977 80.9766 296.016 80.7422 296.875 80.2734C297.75 79.7891 298.461 79.1484 299.008 78.3516C299.57 77.5547 299.977 76.6328 300.227 75.5859C300.492 74.5234 300.625 73.4062 300.625 72.2344ZM308.5 60.4688H313.141L318.906 76.0312L320.148 79.8281L321.438 75.9375L327.156 60.4688H331.633L322.398 84H317.711L308.5 60.4688ZM352.211 84L352.117 80.8359C350.836 82.1016 349.531 83.0156 348.203 83.5781C346.891 84.1406 345.508 84.4219 344.055 84.4219C342.711 84.4219 341.562 84.25 340.609 83.9062C339.656 83.5625 338.867 83.0938 338.242 82.5C337.633 81.8906 337.18 81.1797 336.883 80.3672C336.602 79.5547 336.461 78.6719 336.461 77.7188C336.461 75.3594 337.336 73.5156 339.086 72.1875C340.852 70.8438 343.453 70.1719 346.891 70.1719H351.766V68.1094C351.766 66.7188 351.32 65.6094 350.43 64.7812C349.539 63.9375 348.18 63.5156 346.352 63.5156C345.023 63.5156 343.711 63.6641 342.414 63.9609C341.133 64.2578 339.805 64.6797 338.43 65.2266V61.5469C338.945 61.3594 339.516 61.1797 340.141 61.0078C340.781 60.8203 341.453 60.6562 342.156 60.5156C342.859 60.375 343.594 60.2656 344.359 60.1875C345.125 60.0938 345.898 60.0469 346.68 60.0469C348.102 60.0469 349.383 60.2031 350.523 60.5156C351.664 60.8281 352.625 61.3047 353.406 61.9453C354.203 62.5859 354.812 63.3906 355.234 64.3594C355.656 65.3281 355.867 66.4688 355.867 67.7812V84H352.211ZM351.766 73.2891H346.586C345.57 73.2891 344.695 73.3906 343.961 73.5938C343.227 73.7969 342.625 74.0859 342.156 74.4609C341.688 74.8359 341.336 75.2891 341.102 75.8203C340.883 76.3359 340.773 76.9219 340.773 77.5781C340.773 78.0312 340.844 78.4688 340.984 78.8906C341.125 79.2969 341.352 79.6641 341.664 79.9922C341.977 80.3047 342.383 80.5547 342.883 80.7422C343.383 80.9297 343.992 81.0234 344.711 81.0234C345.648 81.0234 346.719 80.7422 347.922 80.1797C349.141 79.6016 350.422 78.6953 351.766 77.4609V73.2891ZM364.445 60.4688H368.172L368.289 64.8047C369.68 63.1328 371.047 61.9219 372.391 61.1719C373.75 60.4219 375.117 60.0469 376.492 60.0469C378.93 60.0469 380.773 60.8359 382.023 62.4141C383.289 63.9922 383.875 66.3359 383.781 69.4453H379.656C379.703 67.3828 379.398 65.8906 378.742 64.9688C378.102 64.0312 377.156 63.5625 375.906 63.5625C375.359 63.5625 374.805 63.6641 374.242 63.8672C373.695 64.0547 373.125 64.3672 372.531 64.8047C371.953 65.2266 371.336 65.7734 370.68 66.4453C370.023 67.1172 369.32 67.9297 368.57 68.8828V84H364.445V60.4688ZM410.359 72.0469C410.359 73.875 410.102 75.5547 409.586 77.0859C409.07 78.6016 408.328 79.9062 407.359 81C406.391 82.0781 405.211 82.9219 403.82 83.5312C402.43 84.125 400.852 84.4219 399.086 84.4219C397.398 84.4219 395.883 84.1641 394.539 83.6484C393.211 83.1172 392.078 82.3438 391.141 81.3281C390.219 80.3125 389.508 79.0547 389.008 77.5547C388.523 76.0547 388.281 74.3281 388.281 72.375C388.281 70.5469 388.539 68.8828 389.055 67.3828C389.57 65.8672 390.312 64.5703 391.281 63.4922C392.25 62.3984 393.43 61.5547 394.82 60.9609C396.211 60.3516 397.789 60.0469 399.555 60.0469C401.242 60.0469 402.75 60.3125 404.078 60.8438C405.422 61.3594 406.555 62.125 407.477 63.1406C408.414 64.1406 409.125 65.3906 409.609 66.8906C410.109 68.3906 410.359 70.1094 410.359 72.0469ZM406.188 72.2344C406.188 70.7812 406.023 69.5156 405.695 68.4375C405.383 67.3438 404.93 66.4375 404.336 65.7188C403.742 64.9844 403.016 64.4375 402.156 64.0781C401.312 63.7031 400.367 63.5156 399.32 63.5156C398.102 63.5156 397.055 63.7578 396.18 64.2422C395.32 64.7109 394.609 65.3438 394.047 66.1406C393.5 66.9375 393.094 67.8672 392.828 68.9297C392.578 69.9766 392.453 71.0781 392.453 72.2344C392.453 73.6875 392.609 74.9609 392.922 76.0547C393.25 77.1484 393.711 78.0625 394.305 78.7969C394.898 79.5156 395.617 80.0625 396.461 80.4375C397.305 80.7969 398.258 80.9766 399.32 80.9766C400.539 80.9766 401.578 80.7422 402.438 80.2734C403.312 79.7891 404.023 79.1484 404.57 78.3516C405.133 77.5547 405.539 76.6328 405.789 75.5859C406.055 74.5234 406.188 73.4062 406.188 72.2344ZM414.062 60.4688H418.703L424.469 76.0312L425.711 79.8281L427 75.9375L432.719 60.4688H437.195L427.961 84H423.273L414.062 60.4688Z" fill="#273329"/>
<path d="M202.445 116.188C202.305 118.328 202.016 120.523 201.578 122.773C201.156 125.023 200.578 127.203 199.844 129.312C199.125 131.422 198.25 133.398 197.219 135.242C196.188 137.086 194.992 138.672 193.633 140H189.109L188.055 132.453L187.82 129.828L186.531 132.523L182.594 140H176.148L177.555 116.188H182.875L181.914 129.641L181.586 133.32L183.203 130.016L187.047 122.773H191.406L192.531 129.969L192.953 133.367C193.656 132.258 194.258 131.008 194.758 129.617C195.258 128.227 195.672 126.773 196 125.258C196.328 123.742 196.578 122.211 196.75 120.664C196.938 119.117 197.062 117.625 197.125 116.188H202.445ZM209.172 130.062C209.141 130.25 209.117 130.469 209.102 130.719C209.086 130.953 209.078 131.219 209.078 131.516C209.078 132.938 209.523 134.039 210.414 134.82C211.32 135.586 212.648 135.969 214.398 135.969C215.57 135.969 216.828 135.883 218.172 135.711C219.516 135.523 220.805 135.258 222.039 134.914V139.367C220.727 139.711 219.312 139.992 217.797 140.211C216.297 140.43 214.797 140.539 213.297 140.539C211.766 140.539 210.391 140.352 209.172 139.977C207.953 139.602 206.922 139.047 206.078 138.312C205.234 137.578 204.586 136.656 204.133 135.547C203.68 134.438 203.453 133.141 203.453 131.656C203.453 129.5 203.781 127.453 204.438 125.516C205.109 123.578 206.047 121.883 207.25 120.43C208.469 118.961 209.93 117.805 211.633 116.961C213.336 116.102 215.234 115.672 217.328 115.672C218.688 115.672 219.891 115.828 220.938 116.141C222 116.453 222.891 116.891 223.609 117.453C224.344 118.016 224.898 118.695 225.273 119.492C225.664 120.273 225.859 121.141 225.859 122.094C225.859 123.297 225.617 124.391 225.133 125.375C224.648 126.344 223.867 127.18 222.789 127.883C221.711 128.57 220.305 129.109 218.57 129.5C216.852 129.875 214.758 130.062 212.289 130.062H209.172ZM212.57 125.984C214.211 125.984 215.531 125.891 216.531 125.703C217.531 125.516 218.305 125.273 218.852 124.977C219.414 124.664 219.789 124.305 219.977 123.898C220.164 123.492 220.258 123.07 220.258 122.633C220.258 121.805 219.938 121.148 219.297 120.664C218.656 120.18 217.805 119.938 216.742 119.938C215.883 119.938 215.094 120.102 214.375 120.43C213.656 120.742 213.016 121.172 212.453 121.719C211.906 122.266 211.43 122.906 211.023 123.641C210.633 124.375 210.32 125.156 210.086 125.984H212.57ZM252.602 123.922C252.602 126.328 252.281 128.539 251.641 130.555C251 132.57 250.07 134.312 248.852 135.781C247.633 137.234 246.141 138.375 244.375 139.203C242.609 140.016 240.602 140.422 238.352 140.422C237.336 140.422 236.398 140.383 235.539 140.305C234.68 140.242 233.859 140.148 233.078 140.023C232.312 139.898 231.578 139.75 230.875 139.578C230.188 139.406 229.508 139.211 228.836 138.992L235.258 106.883H240.977L239.359 115.039L237.672 119.984C238.094 119.312 238.594 118.711 239.172 118.18C239.75 117.648 240.383 117.195 241.07 116.82C241.758 116.445 242.477 116.164 243.227 115.977C243.992 115.773 244.766 115.672 245.547 115.672C247.859 115.672 249.609 116.391 250.797 117.828C252 119.266 252.602 121.297 252.602 123.922ZM246.648 124.297C246.648 123.047 246.43 122.094 245.992 121.438C245.57 120.781 244.922 120.453 244.047 120.453C243.562 120.453 243.055 120.586 242.523 120.852C242.008 121.117 241.484 121.484 240.953 121.953C240.438 122.406 239.93 122.945 239.43 123.57C238.945 124.18 238.492 124.836 238.07 125.539C237.664 126.227 237.312 126.938 237.016 127.672C236.719 128.406 236.508 129.125 236.383 129.828L235.258 135.43C235.758 135.602 236.273 135.734 236.805 135.828C237.336 135.922 237.898 135.969 238.492 135.969C239.602 135.969 240.57 135.773 241.398 135.383C242.242 134.977 242.961 134.453 243.555 133.812C244.164 133.156 244.664 132.414 245.055 131.586C245.461 130.758 245.781 129.914 246.016 129.055C246.25 128.195 246.414 127.352 246.508 126.523C246.602 125.695 246.648 124.953 246.648 124.297ZM256 134.469C257.594 135.031 259.117 135.453 260.57 135.734C262.023 136.016 263.375 136.156 264.625 136.156C266.453 136.156 267.781 135.867 268.609 135.289C269.453 134.711 269.875 133.977 269.875 133.086C269.875 132.773 269.812 132.492 269.688 132.242C269.562 131.977 269.336 131.727 269.008 131.492C268.68 131.258 268.227 131.023 267.648 130.789C267.086 130.555 266.352 130.297 265.445 130.016C263.258 129.344 261.617 128.438 260.523 127.297C259.43 126.156 258.883 124.711 258.883 122.961C258.883 121.961 259.133 121.023 259.633 120.148C260.133 119.258 260.859 118.484 261.812 117.828C262.781 117.156 263.977 116.633 265.398 116.258C266.82 115.867 268.453 115.672 270.297 115.672C271.859 115.672 273.195 115.742 274.305 115.883C275.414 116.008 276.383 116.156 277.211 116.328V120.992C275.695 120.539 274.359 120.242 273.203 120.102C272.047 119.961 271 119.891 270.062 119.891C269.094 119.891 268.281 119.977 267.625 120.148C266.969 120.305 266.445 120.531 266.055 120.828C265.664 121.125 265.383 121.438 265.211 121.766C265.055 122.078 264.977 122.383 264.977 122.68C264.977 123.039 265.047 123.359 265.188 123.641C265.328 123.922 265.578 124.188 265.938 124.438C266.297 124.688 266.781 124.938 267.391 125.188C268 125.438 268.766 125.703 269.688 125.984C271.812 126.656 273.406 127.516 274.469 128.562C275.531 129.609 276.062 130.906 276.062 132.453C276.062 133.844 275.766 135.047 275.172 136.062C274.578 137.062 273.766 137.898 272.734 138.57C271.703 139.242 270.492 139.734 269.102 140.047C267.711 140.375 266.219 140.539 264.625 140.539C262.828 140.539 261.219 140.453 259.797 140.281C258.391 140.125 257.125 139.906 256 139.625V134.469ZM295.914 132.031C295.633 133.516 295.641 134.562 295.938 135.172C296.234 135.766 296.82 136.062 297.695 136.062C298.43 136.062 299.242 135.906 300.133 135.594C301.023 135.266 302.039 134.828 303.18 134.281V138.664C302.164 139.211 301.07 139.656 299.898 140C298.742 140.359 297.562 140.539 296.359 140.539C293.688 140.539 291.828 139.852 290.781 138.477C289.734 137.086 289.516 134.875 290.125 131.844L291.648 124.156C291.945 122.672 291.938 121.633 291.625 121.039C291.312 120.43 290.727 120.125 289.867 120.125C289.148 120.125 288.336 120.289 287.43 120.617C286.539 120.93 285.531 121.359 284.406 121.906V117.523C285.422 116.961 286.508 116.508 287.664 116.164C288.82 115.82 290.008 115.648 291.227 115.648C293.883 115.648 295.734 116.344 296.781 117.734C297.828 119.125 298.055 121.328 297.461 124.344L295.914 132.031ZM300.625 109.461C300.625 110.023 300.516 110.547 300.297 111.031C300.078 111.516 299.781 111.938 299.406 112.297C299.047 112.641 298.625 112.914 298.141 113.117C297.672 113.305 297.172 113.398 296.641 113.398C296.094 113.398 295.594 113.305 295.141 113.117C294.688 112.914 294.297 112.656 293.969 112.344C293.641 112.016 293.383 111.641 293.195 111.219C293.023 110.781 292.938 110.328 292.938 109.859C292.938 109.297 293.047 108.781 293.266 108.312C293.484 107.828 293.781 107.414 294.156 107.07C294.531 106.711 294.961 106.43 295.445 106.227C295.93 106.023 296.438 105.922 296.969 105.922C297.531 105.922 298.031 106.023 298.469 106.227C298.922 106.414 299.305 106.672 299.617 107C299.945 107.328 300.195 107.703 300.367 108.125C300.539 108.547 300.625 108.992 300.625 109.461ZM327.977 139.672C326.898 139.938 325.82 140.148 324.742 140.305C323.68 140.461 322.68 140.539 321.742 140.539C320.18 140.539 318.836 140.367 317.711 140.023C316.602 139.68 315.719 139.133 315.062 138.383C314.406 137.633 313.992 136.656 313.82 135.453C313.664 134.25 313.758 132.789 314.102 131.07L316.211 120.641H309.836L310.703 116.188H317.078L318.32 110.094L324.484 108.57L322.938 116.188H332.195L331.328 120.641H322.07L319.961 131.117C319.805 131.914 319.727 132.617 319.727 133.227C319.742 133.82 319.859 134.305 320.078 134.68C320.312 135.055 320.656 135.352 321.109 135.57C321.562 135.773 322.156 135.875 322.891 135.875C323.766 135.875 324.633 135.797 325.492 135.641C326.352 135.484 327.18 135.312 327.977 135.125V139.672ZM341.125 130.062C341.094 130.25 341.07 130.469 341.055 130.719C341.039 130.953 341.031 131.219 341.031 131.516C341.031 132.938 341.477 134.039 342.367 134.82C343.273 135.586 344.602 135.969 346.352 135.969C347.523 135.969 348.781 135.883 350.125 135.711C351.469 135.523 352.758 135.258 353.992 134.914V139.367C352.68 139.711 351.266 139.992 349.75 140.211C348.25 140.43 346.75 140.539 345.25 140.539C343.719 140.539 342.344 140.352 341.125 139.977C339.906 139.602 338.875 139.047 338.031 138.312C337.188 137.578 336.539 136.656 336.086 135.547C335.633 134.438 335.406 133.141 335.406 131.656C335.406 129.5 335.734 127.453 336.391 125.516C337.062 123.578 338 121.883 339.203 120.43C340.422 118.961 341.883 117.805 343.586 116.961C345.289 116.102 347.188 115.672 349.281 115.672C350.641 115.672 351.844 115.828 352.891 116.141C353.953 116.453 354.844 116.891 355.562 117.453C356.297 118.016 356.852 118.695 357.227 119.492C357.617 120.273 357.812 121.141 357.812 122.094C357.812 123.297 357.57 124.391 357.086 125.375C356.602 126.344 355.82 127.18 354.742 127.883C353.664 128.57 352.258 129.109 350.523 129.5C348.805 129.875 346.711 130.062 344.242 130.062H341.125ZM344.523 125.984C346.164 125.984 347.484 125.891 348.484 125.703C349.484 125.516 350.258 125.273 350.805 124.977C351.367 124.664 351.742 124.305 351.93 123.898C352.117 123.492 352.211 123.07 352.211 122.633C352.211 121.805 351.891 121.148 351.25 120.664C350.609 120.18 349.758 119.938 348.695 119.938C347.836 119.938 347.047 120.102 346.328 120.43C345.609 120.742 344.969 121.172 344.406 121.719C343.859 122.266 343.383 122.906 342.977 123.641C342.586 124.375 342.273 125.156 342.039 125.984H344.523ZM361.562 134.469C363.156 135.031 364.68 135.453 366.133 135.734C367.586 136.016 368.938 136.156 370.188 136.156C372.016 136.156 373.344 135.867 374.172 135.289C375.016 134.711 375.438 133.977 375.438 133.086C375.438 132.773 375.375 132.492 375.25 132.242C375.125 131.977 374.898 131.727 374.57 131.492C374.242 131.258 373.789 131.023 373.211 130.789C372.648 130.555 371.914 130.297 371.008 130.016C368.82 129.344 367.18 128.438 366.086 127.297C364.992 126.156 364.445 124.711 364.445 122.961C364.445 121.961 364.695 121.023 365.195 120.148C365.695 119.258 366.422 118.484 367.375 117.828C368.344 117.156 369.539 116.633 370.961 116.258C372.383 115.867 374.016 115.672 375.859 115.672C377.422 115.672 378.758 115.742 379.867 115.883C380.977 116.008 381.945 116.156 382.773 116.328V120.992C381.258 120.539 379.922 120.242 378.766 120.102C377.609 119.961 376.562 119.891 375.625 119.891C374.656 119.891 373.844 119.977 373.188 120.148C372.531 120.305 372.008 120.531 371.617 120.828C371.227 121.125 370.945 121.438 370.773 121.766C370.617 122.078 370.539 122.383 370.539 122.68C370.539 123.039 370.609 123.359 370.75 123.641C370.891 123.922 371.141 124.188 371.5 124.438C371.859 124.688 372.344 124.938 372.953 125.188C373.562 125.438 374.328 125.703 375.25 125.984C377.375 126.656 378.969 127.516 380.031 128.562C381.094 129.609 381.625 130.906 381.625 132.453C381.625 133.844 381.328 135.047 380.734 136.062C380.141 137.062 379.328 137.898 378.297 138.57C377.266 139.242 376.055 139.734 374.664 140.047C373.273 140.375 371.781 140.539 370.188 140.539C368.391 140.539 366.781 140.453 365.359 140.281C363.953 140.125 362.688 139.906 361.562 139.625V134.469Z" fill="#273329"/>
<path d="M185.266 36V27.5508C185.266 27.1836 185.25 26.8828 185.219 26.6484C185.195 26.4141 185.152 26.2305 185.09 26.0977C185.035 25.957 184.961 25.8594 184.867 25.8047C184.781 25.75 184.672 25.7227 184.539 25.7227C184.383 25.7227 184.238 25.7695 184.105 25.8633C183.973 25.957 183.828 26.1094 183.672 26.3203C183.523 26.5312 183.355 26.8125 183.168 27.1641C182.988 27.5078 182.773 27.9336 182.523 28.4414V36H180.66V27.7734C180.66 27.3438 180.645 26.9961 180.613 26.7305C180.59 26.4648 180.547 26.2578 180.484 26.1094C180.43 25.9609 180.355 25.8594 180.262 25.8047C180.168 25.75 180.055 25.7227 179.922 25.7227C179.781 25.7227 179.648 25.7617 179.523 25.8398C179.398 25.918 179.258 26.0586 179.102 26.2617C178.953 26.4648 178.785 26.7422 178.598 27.0938C178.41 27.4453 178.188 27.8945 177.93 28.4414V36H176.055V24.2344H177.613L177.707 26.4727C177.91 26.0273 178.105 25.6484 178.293 25.3359C178.488 25.0234 178.688 24.7734 178.891 24.5859C179.094 24.3906 179.309 24.25 179.535 24.1641C179.77 24.0703 180.027 24.0234 180.309 24.0234C180.941 24.0234 181.422 24.2305 181.75 24.6445C182.078 25.0586 182.242 25.6992 182.242 26.5664C182.43 26.1602 182.613 25.8008 182.793 25.4883C182.973 25.168 183.164 24.9023 183.367 24.6914C183.578 24.4727 183.809 24.3086 184.059 24.1992C184.309 24.082 184.598 24.0234 184.926 24.0234C186.402 24.0234 187.141 25.1602 187.141 27.4336V36H185.266ZM197.629 36L197.582 34.418C196.941 35.0508 196.289 35.5078 195.625 35.7891C194.969 36.0703 194.277 36.2109 193.551 36.2109C192.879 36.2109 192.305 36.125 191.828 35.9531C191.352 35.7812 190.957 35.5469 190.645 35.25C190.34 34.9453 190.113 34.5898 189.965 34.1836C189.824 33.7773 189.754 33.3359 189.754 32.8594C189.754 31.6797 190.191 30.7578 191.066 30.0938C191.949 29.4219 193.25 29.0859 194.969 29.0859H197.406V28.0547C197.406 27.3594 197.184 26.8047 196.738 26.3906C196.293 25.9688 195.613 25.7578 194.699 25.7578C194.035 25.7578 193.379 25.832 192.73 25.9805C192.09 26.1289 191.426 26.3398 190.738 26.6133V24.7734C190.996 24.6797 191.281 24.5898 191.594 24.5039C191.914 24.4102 192.25 24.3281 192.602 24.2578C192.953 24.1875 193.32 24.1328 193.703 24.0938C194.086 24.0469 194.473 24.0234 194.863 24.0234C195.574 24.0234 196.215 24.1016 196.785 24.2578C197.355 24.4141 197.836 24.6523 198.227 24.9727C198.625 25.293 198.93 25.6953 199.141 26.1797C199.352 26.6641 199.457 27.2344 199.457 27.8906V36H197.629ZM197.406 30.6445H194.816C194.309 30.6445 193.871 30.6953 193.504 30.7969C193.137 30.8984 192.836 31.043 192.602 31.2305C192.367 31.418 192.191 31.6445 192.074 31.9102C191.965 32.168 191.91 32.4609 191.91 32.7891C191.91 33.0156 191.945 33.2344 192.016 33.4453C192.086 33.6484 192.199 33.832 192.355 33.9961C192.512 34.1523 192.715 34.2773 192.965 34.3711C193.215 34.4648 193.52 34.5117 193.879 34.5117C194.348 34.5117 194.883 34.3711 195.484 34.0898C196.094 33.8008 196.734 33.3477 197.406 32.7305V30.6445ZM202.668 30.3633C202.668 29.3633 202.805 28.4766 203.078 27.7031C203.352 26.9219 203.738 26.2656 204.238 25.7344C204.746 25.1953 205.352 24.7891 206.055 24.5156C206.766 24.2344 207.555 24.0938 208.422 24.0938C208.797 24.0938 209.164 24.1172 209.523 24.1641C209.891 24.2109 210.25 24.2852 210.602 24.3867V19.4414H212.652V36H210.824L210.754 33.7734C210.184 34.6016 209.566 35.2148 208.902 35.6133C208.238 36.0117 207.52 36.2109 206.746 36.2109C206.074 36.2109 205.48 36.0703 204.965 35.7891C204.457 35.5078 204.031 35.1133 203.688 34.6055C203.352 34.0898 203.098 33.4727 202.926 32.7539C202.754 32.0352 202.668 31.2383 202.668 30.3633ZM204.754 30.2344C204.754 31.6562 204.961 32.7188 205.375 33.4219C205.797 34.1172 206.391 34.4648 207.156 34.4648C207.672 34.4648 208.215 34.2344 208.785 33.7734C209.363 33.3125 209.969 32.6289 210.602 31.7227V26.2617C210.266 26.1055 209.895 25.9883 209.488 25.9102C209.082 25.8242 208.68 25.7812 208.281 25.7812C207.172 25.7812 206.305 26.1406 205.68 26.8594C205.062 27.5781 204.754 28.7031 204.754 30.2344ZM226.398 29.4961C226.398 29.7852 226.395 30.0273 226.387 30.2227C226.379 30.418 226.367 30.6016 226.352 30.7734H218.09C218.09 31.9766 218.426 32.9023 219.098 33.5508C219.77 34.1914 220.738 34.5117 222.004 34.5117C222.348 34.5117 222.691 34.5 223.035 34.4766C223.379 34.4453 223.711 34.4062 224.031 34.3594C224.352 34.3125 224.656 34.2617 224.945 34.207C225.242 34.1445 225.516 34.0781 225.766 34.0078V35.6836C225.211 35.8398 224.582 35.9648 223.879 36.0586C223.184 36.1602 222.461 36.2109 221.711 36.2109C220.703 36.2109 219.836 36.0742 219.109 35.8008C218.383 35.5273 217.785 35.1328 217.316 34.6172C216.855 34.0938 216.512 33.457 216.285 32.707C216.066 31.9492 215.957 31.0938 215.957 30.1406C215.957 29.3125 216.074 28.5312 216.309 27.7969C216.551 27.0547 216.898 26.4062 217.352 25.8516C217.812 25.2891 218.375 24.8438 219.039 24.5156C219.703 24.1875 220.457 24.0234 221.301 24.0234C222.121 24.0234 222.848 24.1523 223.48 24.4102C224.113 24.668 224.645 25.0352 225.074 25.5117C225.512 25.9805 225.84 26.5547 226.059 27.2344C226.285 27.9062 226.398 28.6602 226.398 29.4961ZM224.277 29.2031C224.301 28.6797 224.25 28.2031 224.125 27.7734C224 27.3359 223.805 26.9609 223.539 26.6484C223.281 26.3359 222.957 26.0938 222.566 25.9219C222.176 25.7422 221.723 25.6523 221.207 25.6523C220.762 25.6523 220.355 25.7383 219.988 25.9102C219.621 26.082 219.305 26.3242 219.039 26.6367C218.773 26.9492 218.559 27.3242 218.395 27.7617C218.23 28.1992 218.129 28.6797 218.09 29.2031H224.277ZM252.906 29.9062C252.906 30.8828 252.77 31.7578 252.496 32.5312C252.23 33.2969 251.848 33.9492 251.348 34.4883C250.855 35.0195 250.254 35.4297 249.543 35.7188C248.832 36 248.031 36.1406 247.141 36.1406C246.445 36.1406 245.734 36.0742 245.008 35.9414C244.281 35.8086 243.562 35.5977 242.852 35.3086V19.4414H244.891V24L244.797 26.1797C245.383 25.3906 246.008 24.8359 246.672 24.5156C247.344 24.1875 248.062 24.0234 248.828 24.0234C249.5 24.0234 250.09 24.1641 250.598 24.4453C251.105 24.7266 251.531 25.125 251.875 25.6406C252.219 26.1484 252.477 26.7656 252.648 27.4922C252.82 28.2109 252.906 29.0156 252.906 29.9062ZM250.82 30C250.82 29.3828 250.773 28.8164 250.68 28.3008C250.594 27.7852 250.453 27.3438 250.258 26.9766C250.062 26.6094 249.812 26.3242 249.508 26.1211C249.203 25.9102 248.84 25.8047 248.418 25.8047C248.16 25.8047 247.898 25.8477 247.633 25.9336C247.367 26.0117 247.09 26.1484 246.801 26.3438C246.52 26.5312 246.219 26.7852 245.898 27.1055C245.586 27.418 245.25 27.8086 244.891 28.2773V33.9844C245.289 34.1406 245.695 34.2656 246.109 34.3594C246.523 34.4453 246.918 34.4883 247.293 34.4883C247.762 34.4883 248.207 34.4141 248.629 34.2656C249.059 34.1172 249.434 33.8711 249.754 33.5273C250.082 33.1758 250.34 32.7148 250.527 32.1445C250.723 31.5664 250.82 30.8516 250.82 30ZM266.512 24.2344L262.504 34.7578C262.09 35.8281 261.66 36.75 261.215 37.5234C260.777 38.2969 260.297 38.9297 259.773 39.4219C259.25 39.9219 258.676 40.2891 258.051 40.5234C257.426 40.7578 256.727 40.875 255.953 40.875C255.75 40.875 255.566 40.8711 255.402 40.8633C255.238 40.8555 255.059 40.8438 254.863 40.8281V38.9766C255.035 39 255.223 39.0195 255.426 39.0352C255.629 39.0586 255.844 39.0703 256.07 39.0703C256.445 39.0703 256.793 39.0156 257.113 38.9062C257.441 38.7969 257.75 38.6172 258.039 38.3672C258.328 38.125 258.605 37.8086 258.871 37.418C259.137 37.0273 259.395 36.5547 259.645 36L254.945 24.2344H257.266L260.242 32.0156L260.84 33.8438L261.52 31.9688L264.273 24.2344H266.512Z" fill="#273329"/>
</svg>
