<svg width="152" height="66" viewBox="0 0 152 66" fill="none" xmlns="http://www.w3.org/2000/svg">
<path d="M28.7217 47.6494L24.8364 51.5703L0.883301 31.5737L24.8364 11.5771L28.7217 15.5337L9.29541 31.5024L28.7217 47.6494ZM70.604 0.634277L46.1519 58.6636H40.2349L64.687 0.634277H70.604ZM112.558 32.4648C112.558 35.6491 112.106 38.4294 111.203 40.8057C110.324 43.182 109.1 45.1543 107.532 46.7227C105.963 48.291 104.11 49.4673 101.971 50.2515C99.8325 51.0356 97.5156 51.4277 95.0205 51.4277C93.8799 51.4277 92.7393 51.3683 91.5986 51.2495C90.4818 51.1307 89.3411 50.9287 88.1768 50.6436V65.6143H81.9746V15.2129H87.4995L87.8916 21.2012C89.6738 18.7536 91.5749 17.0426 93.5947 16.0684C95.6146 15.0703 97.8008 14.5713 100.153 14.5713C102.197 14.5713 103.991 14.999 105.536 15.8545C107.08 16.71 108.375 17.9219 109.421 19.4902C110.466 21.0348 111.251 22.9121 111.773 25.1221C112.296 27.3083 112.558 29.7559 112.558 32.4648ZM106.213 32.75C106.213 30.8727 106.07 29.1499 105.785 27.5815C105.524 26.0132 105.096 24.6706 104.502 23.5537C103.908 22.4368 103.147 21.5695 102.221 20.9517C101.294 20.3101 100.189 19.9893 98.9058 19.9893C98.1216 19.9893 97.3255 20.12 96.5176 20.3813C95.7096 20.619 94.866 21.0348 93.9868 21.6289C93.1313 22.1992 92.2165 22.9715 91.2422 23.9458C90.2917 24.8963 89.2699 26.0845 88.1768 27.5103V44.8691C89.3174 45.3444 90.5174 45.7246 91.7769 46.0098C93.0363 46.2712 94.272 46.4019 95.4839 46.4019C98.8345 46.4019 101.46 45.2731 103.361 43.0156C105.262 40.7344 106.213 37.3125 106.213 32.75ZM123.857 15.5337L127.707 11.5771L151.66 31.5737L127.707 51.5703L123.857 47.6494L143.283 31.645L123.857 15.5337Z" fill="#ECD7C1"/>
</svg>
